<svg width="12" height="12" viewBox="0 0 12 12" fill="none" xmlns="http://www.w3.org/2000/svg">
<g id="Drag and Drop Handle">
<path id="Union" fill-rule="evenodd" clip-rule="evenodd" d="M5.57085 2.79064C5.57085 3.22729 5.21921 3.58127 4.78543 3.58127C4.35165 3.58127 4 3.22729 4 2.79064C4 2.35398 4.35165 2 4.78543 2C5.21921 2 5.57085 2.35398 5.57085 2.79064ZM8.44455 2.79064C8.44455 3.22729 8.0929 3.58127 7.65912 3.58127C7.22534 3.58127 6.8737 3.22729 6.8737 2.79064C6.8737 2.35398 7.22534 2 7.65912 2C8.0929 2 8.44455 2.35398 8.44455 2.79064ZM4.78543 6.79254C5.21921 6.79254 5.57085 6.43856 5.57085 6.0019C5.57085 5.56524 5.21921 5.21126 4.78543 5.21126C4.35165 5.21126 4 5.56524 4 6.0019C4 6.43856 4.35165 6.79254 4.78543 6.79254ZM8.44455 6.0019C8.44455 6.43856 8.0929 6.79254 7.65912 6.79254C7.22534 6.79254 6.8737 6.43856 6.8737 6.0019C6.8737 5.56524 7.22534 5.21126 7.65912 5.21126C8.0929 5.21126 8.44455 5.56524 8.44455 6.0019ZM4.78543 10C5.21921 10 5.57085 9.64602 5.57085 9.20936C5.57085 8.77271 5.21921 8.41873 4.78543 8.41873C4.35165 8.41873 4 8.77271 4 9.20936C4 9.64602 4.35165 10 4.78543 10ZM8.44455 9.20936C8.44455 9.64602 8.0929 10 7.65912 10C7.22534 10 6.8737 9.64602 6.8737 9.20936C6.8737 8.77271 7.22534 8.41873 7.65912 8.41873C8.0929 8.41873 8.44455 8.77271 8.44455 9.20936Z" fill="#D9D9D9"/>
</g>
</svg>
